<?xml version="1.0" encoding="iso-8859-1"?>
<!-- Uploaded to: SVG Repo, www.svgrepo.com, Generator: SVG Repo Mixer Tools -->
<svg fill="#000000" height="800px" width="800px" version="1.1" id="Layer_1" xmlns="http://www.w3.org/2000/svg" xmlns:xlink="http://www.w3.org/1999/xlink" 
	 viewBox="0 0 409.224 409.224" xml:space="preserve">
<g>
	<g>
		<g>
			<circle cx="220.239" cy="263.788" r="7.547"/>
			<circle cx="244.339" cy="239.686" r="7.548"/>
			<path d="M407.026,66.327l-64.129-64.13C341.491,0.79,339.583,0,337.594,0s-3.897,0.79-5.303,2.197l-99.068,99.069
				c-2.929,2.929-2.929,7.678,0,10.606l19.197,19.198l-1.78,1.78c-13.61-8.768-29.453-13.487-46.029-13.487
				c-22.771,0-44.179,8.868-60.279,24.969c-16.102,16.101-24.97,37.509-24.97,60.28c0,16.576,4.72,32.418,13.488,46.028
				l-1.779,1.779l-19.198-19.198c-2.929-2.929-7.678-2.929-10.606,0l-99.07,99.07c-2.929,2.929-2.929,7.678,0,10.606l64.129,64.13
				c1.406,1.407,3.314,2.197,5.303,2.197c1.989,0,3.897-0.79,5.303-2.197l99.07-99.069c1.407-1.406,2.197-3.314,2.197-5.303
				s-0.79-3.897-2.197-5.303l-19.2-19.2l1.779-1.779c13.609,8.767,29.451,13.487,46.028,13.488h0.007
				c22.767,0,44.173-8.868,60.274-24.97c28.822-28.823,32.633-73.31,11.47-106.297l1.791-1.791l19.199,19.199
				c1.406,1.407,3.314,2.197,5.303,2.197s3.897-0.79,5.303-2.197l99.068-99.069C409.956,74.004,409.956,69.255,407.026,66.327z
				 M230.508,139.29c8.8,3.486,16.883,8.754,23.777,15.648c7.002,7.002,12.202,15.13,15.624,23.804l-40.514,40.515
				c-0.729-1.951-1.863-3.785-3.432-5.354l-11.971-11.972c0.234,0.006,0.468,0.017,0.704,0.017c6.644,0,12.89-2.587,17.588-7.285
				c4.699-4.698,7.286-10.945,7.286-17.589s-2.587-12.89-7.285-17.588c-4.045-4.044-9.238-6.519-14.842-7.131L230.508,139.29z
				 M221.677,170.092c3.856,3.856,3.856,10.107,0,13.963c-1.928,1.928-4.455,2.892-6.982,2.892c-2.526,0-5.053-0.964-6.982-2.892
				c-3.855-3.856-3.855-10.107,0.001-13.963c1.929-1.928,4.456-2.892,6.982-2.892S219.749,168.165,221.677,170.092z
				 M154.939,154.939c7.498-7.499,16.394-13.09,26.099-16.538l-0.004,0.012l-42.621,42.621l-0.006-0.015
				C141.855,171.321,147.445,162.432,154.939,154.939z M206.256,134.403c2.482,0.057,4.942,0.241,7.375,0.55l-78.677,78.678
				c-0.31-2.432-0.494-4.892-0.551-7.375L206.256,134.403z M71.629,391.117l-53.522-53.523l22.417-22.417L94.046,368.7
				L71.629,391.117z M104.653,358.094L51.13,304.571l22.417-22.417l53.523,53.524L104.653,358.094z M160.093,302.655l-22.417,22.417
				l-53.523-53.524l22.417-22.416L160.093,302.655z M178.716,269.935c-8.801-3.487-16.883-8.755-23.778-15.65
				c-6.895-6.895-12.163-14.977-15.649-23.777l0.188-0.188c0.731,1.742,1.799,3.376,3.217,4.794l31.027,31.028
				c1.532,1.532,3.368,2.684,5.359,3.428L178.716,269.935z M153.3,224.508l31.027-31.029l31.028,31.029l-31.028,31.028
				L153.3,224.508z M274.522,211.13c-0.225-0.306-0.467-0.604-0.744-0.881c-2.946-2.948-7.727-2.947-10.672,0
				c-2.947,2.948-2.947,7.726,0,10.673c2.609,2.609,6.65,2.904,9.589,0.894c-2.987,11.905-9.117,23.177-18.41,32.47
				c-13.27,13.27-30.907,20.577-49.668,20.576h-0.006c-3.042,0-6.048-0.212-9.017-0.591l78.643-78.644
				C274.896,200.77,274.999,205.97,274.522,211.13z M302.655,160.093l-53.522-53.523l22.416-22.416l53.523,53.522L302.655,160.093z
				 M335.678,127.07l-53.523-53.522l22.417-22.418l53.523,53.523L335.678,127.07z M368.701,94.046l-53.523-53.523l22.416-22.417
				l53.522,53.523L368.701,94.046z"/>
		</g>
	</g>
</g>
</svg>